<svg width="311.262060546875px" height="134px" xmlns="http://www.w3.org/2000/svg" viewBox="94.36896972656251 8 311.262060546875 134" style="background:#596886" preserveAspectRatio="xMidYMid"><defs><filter id="editing-hover" x="-100%" y="-100%" width="300%" height="300%"><feFlood flood-color="#052b4a" result="flood"></feFlood><feComposite operator="in" in2="SourceAlpha" in="flood" result="shadow"></feComposite><feOffset dx="-50" dy="31.6" in="SourceGraphic" result="offset-1"></feOffset><feOffset dx="50" dy="-31.6" in="shadow" result="offset-2"></feOffset><feMerge><feMergeNode in="offset-2"></feMergeNode><feMergeNode in="offset-1"></feMergeNode></feMerge></filter></defs><g filter="url(#editing-hover)"><g transform="translate(151.0154925584793, 108.15499877929688)"><path d="M24.12-8.14L24.12-8.14L24.12-8.14Q20.38-4.25 13.54-4.25L13.54-4.25L13.54-4.25Q4.97-4.25 3.17-10.51L3.17-10.51L3.17-10.51Q2.59-12.38 2.59-14.47L2.59-14.47L2.59-14.47Q2.59-16.56 3.02-18.72L3.02-18.72L6.41-36.72L21.02-38.16L17.06-17.21L17.06-17.21Q16.92-16.27 16.70-15.26L16.70-15.26L16.70-15.26Q16.49-14.26 16.49-13.21L16.49-13.21L16.49-13.21Q16.49-12.17 16.85-11.48L16.85-11.48L16.85-11.48Q17.21-10.80 17.71-10.37L17.71-10.37L17.71-10.37Q18.58-9.79 20.12-9.79L20.12-9.79L20.12-9.79Q21.67-9.79 23.00-11.66L23.00-11.66L23.00-11.66Q24.34-13.54 24.98-16.78L24.98-16.78L28.94-36.72L43.13-38.16L37.73-9.86L37.73-9.86Q35.06 3.96 29.59 9.43L29.59 9.43L29.59 9.43Q26.78 12.24 23.15 13.36L23.15 13.36L23.15 13.36Q19.51 14.47 14.83 14.47L14.83 14.47L14.83 14.47Q7.27 14.47 2.95 12.10L2.95 12.10L2.95 12.10Q-1.37 9.72-1.37 5.76L-1.37 5.76L-1.37 5.76Q-1.37 2.81 0.86 1.12L0.86 1.12L0.86 1.12Q3.10-0.58 6.55-0.58L6.55-0.58L6.55-0.58Q9.58-0.58 11.88 0.72L11.88 0.72L11.88 0.72Q13.25 1.51 13.90 2.52L13.90 2.52L13.90 2.52Q12.24 3.96 12.24 6.34L12.24 6.34L12.24 6.34Q12.24 9.50 15.12 9.50L15.12 9.50L15.12 9.50Q19.87 9.50 22.61-1.44L22.61-1.44L22.61-1.44Q23.40-4.68 24.12-8.14ZM68.83-3.02L68.83-3.02L68.83-3.02Q65.38 1.44 56.81 1.44L56.81 1.44L56.81 1.44Q52.34 1.44 49.10-1.26L49.10-1.26L49.10-1.26Q45.86-3.96 45.86-7.85L45.86-7.85L45.86-7.85Q45.86-10.01 46.08-11.09L46.08-11.09L50.90-36.72L65.52-38.16L60.26-10.37L60.26-10.37Q59.98-8.78 59.98-7.85L59.98-7.85L59.98-7.85Q59.98-3.67 62.50-3.67L62.50-3.67L62.50-3.67Q65.30-3.67 67.32-7.49L67.32-7.49L67.32-7.49Q67.97-8.71 68.26-10.30L68.26-10.30L73.37-36.72L87.55-38.16L82.22-10.08L82.22-10.08Q82.01-9.00 82.01-7.85L82.01-7.85L82.01-7.85Q82.01-6.70 82.66-5.44L82.66-5.44L82.66-5.44Q83.30-4.18 85.39-3.89L85.39-3.89L85.39-3.89Q84.96-2.16 83.45-1.01L83.45-1.01L83.45-1.01Q80.28 1.44 76.86 1.44L76.86 1.44L76.86 1.44Q73.44 1.44 71.42 0.22L71.42 0.22L71.42 0.22Q69.41-1.01 68.83-3.02ZM112.97-25.27L112.97-25.27L112.97-25.27Q113.98-27.94 113.98-30.24L113.98-30.24L113.98-30.24Q113.98-34.49 110.52-34.49L110.52-34.49L110.52-34.49Q108.72-34.49 107.24-32.87L107.24-32.87L107.24-32.87Q105.77-31.25 105.77-29.23L105.77-29.23L105.77-29.23Q105.77-27.79 106.92-26.64L106.92-26.64L106.92-26.64Q108.58-25.06 112.82-22.46L112.82-22.46L112.82-22.46Q117.07-19.87 118.69-17.75L118.69-17.75L118.69-17.75Q120.31-15.62 120.31-12.71L120.31-12.71L120.31-12.71Q120.31-9.79 118.91-7.13L118.91-7.13L118.91-7.13Q117.50-4.46 114.98-2.59L114.98-2.59L114.98-2.59Q109.58 1.44 100.94 1.44L100.94 1.44L100.94 1.44Q96.26 1.44 92.66-1.01L92.66-1.01L92.66-1.01Q89.06-3.38 89.06-6.19L89.06-6.19L89.06-6.19Q89.06-9.00 91.12-10.66L91.12-10.66L91.12-10.66Q93.17-12.31 96.19-12.31L96.19-12.31L96.19-12.31Q99.22-12.31 101.09-11.16L101.09-11.16L101.09-11.16Q100.15-8.78 100.15-7.20L100.15-7.20L100.15-7.20Q100.15-2.45 104.18-2.45L104.18-2.45L104.18-2.45Q105.91-2.45 107.06-3.53L107.06-3.53L107.06-3.53Q108.22-4.61 108.22-6.48L108.22-6.48L108.22-6.48Q108.22-10.15 102.02-14.04L102.02-14.04L102.02-14.04Q96.98-17.35 95.83-18.65L95.83-18.65L95.83-18.65Q93.89-20.95 93.89-23.83L93.89-23.83L93.89-23.83Q93.89-26.71 95.26-29.45L95.26-29.45L95.26-29.45Q96.62-32.18 99.14-34.13L99.14-34.13L99.14-34.13Q104.40-38.16 113.54-38.16L113.54-38.16L113.54-38.16Q118.22-38.16 121.00-36.29L121.00-36.29L121.00-36.29Q123.77-34.42 123.77-31.25L123.77-31.25L123.77-31.25Q123.77-28.08 121.86-26.28L121.86-26.28L121.86-26.28Q119.95-24.48 116.50-24.48L116.50-24.48L116.50-24.48Q114.12-24.48 112.97-25.27ZM149.54-3.02L149.54-3.02L149.54-3.02Q146.09 1.44 137.52 1.44L137.52 1.44L137.52 1.44Q133.06 1.44 129.82-1.26L129.82-1.26L129.82-1.26Q126.58-3.96 126.58-7.85L126.58-7.85L126.58-7.85Q126.58-10.01 126.79-11.09L126.79-11.09L131.62-36.72L146.23-38.16L140.98-10.37L140.98-10.37Q140.69-8.78 140.69-7.85L140.69-7.85L140.69-7.85Q140.69-3.67 143.21-3.67L143.21-3.67L143.21-3.67Q146.02-3.67 148.03-7.49L148.03-7.49L148.03-7.49Q148.68-8.71 148.97-10.30L148.97-10.30L154.08-36.72L168.26-38.16L162.94-10.08L162.94-10.08Q162.72-9.00 162.72-7.85L162.72-7.85L162.72-7.85Q162.72-6.70 163.37-5.44L163.37-5.44L163.37-5.44Q164.02-4.18 166.10-3.89L166.10-3.89L166.10-3.89Q165.67-2.16 164.16-1.01L164.16-1.01L164.16-1.01Q160.99 1.44 157.57 1.44L157.57 1.44L157.57 1.44Q154.15 1.44 152.14 0.22L152.14 0.22L152.14 0.22Q150.12-1.01 149.54-3.02ZM200.23-41.76L200.23-41.76L200.23-41.76Q201.24-43.49 201.24-45.36L201.24-45.36L201.24-45.36Q201.24-48.67 199.22-48.67L199.22-48.67L199.22-48.67Q196.13-48.67 194.83-42.34L194.83-42.34L193.75-36.72L200.30-36.72L199.87-33.48L193.10-33.48L186.62 0L172.08 1.44L178.99-33.48L173.88-33.48L174.53-36.72L179.57-36.72L181.08-42.41L181.08-42.41Q182.38-47.66 187.92-50.11L187.92-50.11L187.92-50.11Q191.95-51.84 198.72-51.84L198.72-51.84L198.72-51.84Q205.49-51.84 208.51-50.11L208.51-50.11L208.51-50.11Q211.54-48.38 211.54-46.08L211.54-46.08L211.54-46.08Q211.54-43.78 209.74-42.34L209.74-42.34L209.74-42.34Q207.94-40.90 205.92-40.90L205.92-40.90L205.92-40.90Q201.96-40.90 200.23-41.76Z" fill="#ffffff"></path></g></g><style>text {
  font-size: 64px;
  font-family: Arial Black;
  dominant-baseline: central;
  text-anchor: middle;
}</style></svg>